<?xml version="1.0" encoding="UTF-8" standalone="no"?>
<!-- Created with Inkscape (http://www.inkscape.org/) -->

<svg
   xmlns:dc="http://purl.org/dc/elements/1.1/"
   xmlns:cc="http://creativecommons.org/ns#"
   xmlns:rdf="http://www.w3.org/1999/02/22-rdf-syntax-ns#"
   xmlns:svg="http://www.w3.org/2000/svg"
   xmlns="http://www.w3.org/2000/svg"
   version="1.1"
   width="91.089996"
   height="60.360001"
   id="svg3522">
  <defs
     id="defs3524" />
  <metadata
     id="metadata3527">
    <rdf:RDF>
      <cc:Work
         rdf:about="">
        <dc:format>image/svg+xml</dc:format>
        <dc:type
           rdf:resource="http://purl.org/dc/dcmitype/StillImage" />
        <dc:title></dc:title>
      </cc:Work>
    </rdf:RDF>
  </metadata>
  <g
     transform="translate(0,-992.00141)"
     id="layer1">
    <path
       d="m 81.466407,1000.6478 c -2.69076,37.3201 -37.3818,45.8933 -42.0937,46.2249 -22.02864,1.5503 -32.8922398,-3.1103 -30.3765498,-4.7526 10.2275498,-37.6112 37.0228298,-48.46849 72.3503298,-42.65349 m -11.575,6.17499 c -10.39125,8.93 -20.86875,17.5625 -31.94625,24.1212 -0.42875,-3.9162 -0.2675,-9.5425 0.345,-13.6687 -1.38875,4.815 -2.56625,6.5062 -3.46875,15.4625 -4.76125,4.5475 -11.95875,4.7825 -17.035,7.9199 l 0.7275,1.4375 c 6.88875,-2.1274 17.1925,-5.0274 23.95,-10.1749 6.74125,-0.4113 11.36,0.4412 18.385,-0.835 -5.18,-0.1763 -10.04875,-0.8188 -13.98375,-1.8513 l 3.95,-3.41 c 9.43375,-7.7712 7.03375,-5.145 19.07625,-19.0012"
       id="path3138"
       style="fill:#ffffff;fill-opacity:1;fill-rule:evenodd;stroke:none" />
  </g>
</svg>
