<?xml version="1.0" encoding="UTF-8" standalone="no"?>
<!-- Created with Inkscape (http://www.inkscape.org/) -->

<svg
   xmlns:dc="http://purl.org/dc/elements/1.1/"
   xmlns:cc="http://creativecommons.org/ns#"
   xmlns:rdf="http://www.w3.org/1999/02/22-rdf-syntax-ns#"
   xmlns:svg="http://www.w3.org/2000/svg"
   xmlns="http://www.w3.org/2000/svg"
   xmlns:sodipodi="http://sodipodi.sourceforge.net/DTD/sodipodi-0.dtd"
   xmlns:inkscape="http://www.inkscape.org/namespaces/inkscape"
   width="190"
   height="190"
   id="svg3207"
   version="1.1"
   inkscape:version="0.48.4 r9939"
   sodipodi:docname="drawing.svg">
  <defs
     id="defs3209" />
  <sodipodi:namedview
     id="base"
     pagecolor="#ffffff"
     bordercolor="#666666"
     borderopacity="1.0"
     inkscape:pageopacity="0.0"
     inkscape:pageshadow="2"
     inkscape:zoom="1.08"
     inkscape:cx="375"
     inkscape:cy="297.77778"
     inkscape:document-units="px"
     inkscape:current-layer="layer1"
     showgrid="false"
     inkscape:window-width="1920"
     inkscape:window-height="1031"
     inkscape:window-x="0"
     inkscape:window-y="25"
     inkscape:window-maximized="1" />
  <metadata
     id="metadata3212">
    <rdf:RDF>
      <cc:Work
         rdf:about="">
        <dc:format>image/svg+xml</dc:format>
        <dc:type
           rdf:resource="http://purl.org/dc/dcmitype/StillImage" />
        <dc:title></dc:title>
      </cc:Work>
    </rdf:RDF>
  </metadata>
  <g
     inkscape:label="Layer 1"
     inkscape:groupmode="layer"
     id="layer1"
     transform="translate(0,-862.36218)">
    <path
       style="fill:#f9f9f9;fill-opacity:1;fill-rule:evenodd;stroke:none"
       d="m 84.187226,878.11423 c -14.11625,1.8875 -27.0925,7.4625 -37.92,15.72375 l 10.51625,14.34 c 8.61,-6.63375 18.99,-11.0725 30.29125,-12.4625 l -2.8875,-17.60125"
       id="path3290"
       inkscape:connector-curvature="0" />
    <path
       style="fill:#f9f9f9;fill-opacity:1;fill-rule:evenodd;stroke:none"
       d="m 30.80848,909.36298 c -8.185,10.8075 -13.705,23.735 -15.565,37.79125 l 17.625,2.7125 c 1.39625,-11.235 5.8,-21.5575 12.379996,-30.13375 l -14.439996,-10.37"
       id="path3288"
       inkscape:connector-curvature="0" />
    <path
       style="fill:#f9f9f9;fill-opacity:1;fill-rule:evenodd;stroke:none"
       d="m 15.44098,969.63423 c 1.94125,12.935 6.99375,24.875 14.35875,35.03877 l 14.57125,-10.46502 c -5.8075,-7.95 -9.78625,-17.315 -11.2975,-27.46625 l -17.6325,2.8925"
       id="path3286"
       inkscape:connector-curvature="0" />
    <path
       style="fill:#f9f9f9;fill-opacity:1;fill-rule:evenodd;stroke:none"
       d="m 156.48848,965.61548 c -1.30375,10.01375 -4.99875,19.29125 -10.4925,27.24125 l 14.76125,10.59997 c 7.13,-10.22622 11.9425,-22.17622 13.67125,-35.08122 l -17.94,-2.76"
       id="path3280"
       inkscape:connector-curvature="0" />
    <path
       style="fill:#f9f9f9;fill-opacity:1;fill-rule:evenodd;stroke:none"
       d="m 145.15098,921.06173 c 5.98125,8.23875 9.99875,17.9875 11.35375,28.55125 l 17.8775,-2.93375 c -1.84875,-13.35625 -7.005,-25.68125 -14.61,-36.11875 l -14.62125,10.50125"
       id="path3278"
       inkscape:connector-curvature="0" />
    <path
       style="fill:#f9f9f9;fill-opacity:1;fill-rule:evenodd;stroke:none"
       d="m 102.94348,895.79173 c 11.5425,1.5375 22.105,6.2575 30.7725,13.245 l 10.625,-14.49 c -10.96875,-8.62125 -24.22625,-14.455 -38.6825,-16.41625 l -2.715,17.66125"
       id="path3148"
       inkscape:connector-curvature="0" />
    <path
       style="fill:#f9f9f9;fill-opacity:1;fill-rule:evenodd;stroke:none"
       d="m 90.330166,915.93617 c -7.7425,0.87375 -14.85,3.9075 -20.695,8.48125 l 8.76,11.94375 c 3.9925,-3.235 8.93375,-5.3375 14.33125,-5.81875 l -2.39625,-14.60625"
       id="path3345"
       inkscape:connector-curvature="0" />
    <path
       style="fill:#f9f9f9;fill-opacity:1;fill-rule:evenodd;stroke:none"
       d="m 62.507666,931.53992 c -4.54375,5.80375 -7.5725,12.84875 -8.475,20.53 l 14.6175,2.2475 c 0.54125,-5.3275 2.66875,-10.1975 5.8975,-14.1325 l -12.04,-8.645"
       id="path3343"
       inkscape:connector-curvature="0" />
    <path
       style="fill:#f9f9f9;fill-opacity:1;fill-rule:evenodd;stroke:none"
       d="m 54.153916,962.63492 c 0.9575,6.81125 3.59125,13.09625 7.4675,18.42375 l 11.90625,-8.54875 c -2.555,-3.54 -4.26,-7.7275 -4.81625,-12.2625 l -14.5575,2.3875"
       id="path3341"
       inkscape:connector-curvature="0" />
    <path
       style="fill:#f9f9f9;fill-opacity:1;fill-rule:evenodd;stroke:none"
       d="m 97.77267,930.56992 c 5.55375,0.5625 10.6125,2.85 14.62875,6.31125 l 8.68,-11.83625 c -5.88625,-4.84 -13.135,-8.085 -21.06375,-9.0625 l -2.245,14.5875"
       id="path3337"
       inkscape:connector-curvature="0" />
    <path
       style="fill:#f9f9f9;fill-opacity:1;fill-rule:evenodd;stroke:none"
       d="m 116.34142,941.09117 c 2.82375,3.75875 4.67625,8.285 5.17875,13.2025 l 14.36125,-2.355 c -0.8675,-7.17875 -3.5925,-13.79875 -7.6775,-19.36375 l -11.8625,8.51625"
       id="path3335"
       inkscape:connector-curvature="0" />
    <path
       style="fill:#f9f9f9;fill-opacity:1;fill-rule:evenodd;stroke:none"
       d="m 121.53267,959.61367 c -0.43,4.37875 -1.92625,8.4475 -4.22875,11.9475 l 11.74875,8.43875 c 3.61625,-5.31125 6.02625,-11.50375 6.83,-18.18 l -14.35,-2.20625"
       id="path3333"
       inkscape:connector-curvature="0" />
    <path
       inkscape:connector-curvature="0"
       d="m 94.72772,914.0619 0,17.3775 6.465,-22.93875 -4.37625,2.12125 2.045,-21.02 -3.3375,2.015 0.88125,-15.495 -7.085004,22.78875 4.878754,-2.06375 -3.611254,19.5325 4.140004,-2.3175"
       style="fill:#f9f9f9;fill-opacity:1;fill-rule:evenodd;stroke:none"
       id="path3150" />
    <path
       inkscape:connector-curvature="0"
       d="m 30.61897,958.2844 -17.37625,-10e-4 22.9375,6.465 -2.12,-4.37625 21.019996,2.045 -2.015,-3.3375 15.495,0.88125 -22.79,-7.08625 2.065,4.87875 -19.533746,-3.61 2.3175,4.14125"
       style="fill:#f9f9f9;fill-opacity:1;fill-rule:evenodd;stroke:none"
       id="path3152" />
    <path
       inkscape:connector-curvature="0"
       d="m 161.27522,957.65815 17.37625,0 -22.9375,6.46375 2.12,-4.37625 -21.02,2.045 2.01625,-3.33625 -15.49625,0.88 22.79,-7.085 -2.065,4.8775 19.53375,-3.61 -2.3175,4.14125"
       style="fill:#f9f9f9;fill-opacity:1;fill-rule:evenodd;stroke:none"
       id="path3154" />
    <path
       inkscape:connector-curvature="0"
       d="M 48.083966,912.69065 35.79647,900.4044 l 20.791246,11.64875 -4.59375,1.59375 16.30875,13.41875 -3.785,0.935 11.58,10.3325 -21.12375,-11.10375 4.90875,-1.98875 -16.364996,-11.26 4.566246,-1.29"
       style="fill:#f9f9f9;fill-opacity:1;fill-rule:evenodd;stroke:none"
       id="path3156" />
    <path
       inkscape:connector-curvature="0"
       d="m 48.696466,1003.6894 -12.286246,12.2887 11.648746,-20.7912 1.59375,4.5937 13.4175,-16.3087 0.935,3.78375 10.33375,-11.58 -11.1025,21.12495 -1.99125,-4.9087 -11.25875,16.365 -1.29,-4.5675"
       style="fill:#f9f9f9;fill-opacity:1;fill-rule:evenodd;stroke:none"
       id="path3158" />
    <path
       inkscape:connector-curvature="0"
       d="m 143.93397,912.6694 12.28625,-12.28625 -20.78875,11.6475 4.5925,1.59625 -16.30875,13.41625 3.78375,0.935 -11.57875,10.335 21.125,-11.10375 -4.91,-1.99125 16.365,-11.25875 -4.56625,-1.29"
       style="fill:#f9f9f9;fill-opacity:1;fill-rule:evenodd;stroke:none"
       id="path3160" />
    <path
       inkscape:connector-curvature="0"
       d="m 145.07397,1002.3094 12.28625,12.2862 -20.78875,-11.6475 4.5925,-1.5962 -16.30875,-13.41625 3.78375,-0.935 -11.57875,-10.335 21.125,11.105 -4.91,1.99 16.365,11.25875 -4.56625,1.29"
       style="fill:#f9f9f9;fill-opacity:1;fill-rule:evenodd;stroke:none"
       id="path3162" />
    <path
       inkscape:connector-curvature="0"
       style="fill:#f9f9f9;fill-opacity:1;fill-rule:evenodd;stroke:none"
       d="m 84.438676,1037.9346 c -14.11625,-1.8875 -27.0925,-7.4625 -37.92,-15.7238 l 10.51625,-14.34 c 8.61,6.6338 18.99,11.0725 30.29125,12.4625 l -2.8875,17.6013"
       id="path3290-6" />
    <path
       inkscape:connector-curvature="0"
       style="fill:#f9f9f9;fill-opacity:1;fill-rule:evenodd;stroke:none"
       d="m 103.19493,1020.2571 c 11.5425,-1.5375 22.105,-6.2575 30.7725,-13.245 l 10.625,14.49 c -10.96875,8.6212 -24.22625,14.455 -38.6825,16.4162 l -2.715,-17.6612"
       id="path3148-8" />
    <path
       style="fill:#f9f9f9;fill-opacity:1;fill-rule:evenodd;stroke:none"
       d="m 90.971876,997.7238 c -7.7425,-0.8737 -14.85,-3.90748 -20.695,-8.48123 l 8.76,-11.94375 c 3.9925,3.235 8.93375,5.3375 14.33125,5.81875 l -2.39625,14.60623"
       id="path3345-9"
       inkscape:connector-curvature="0" />
    <path
       style="fill:#f9f9f9;fill-opacity:1;fill-rule:evenodd;stroke:none"
       d="m 98.41438,983.09007 c 5.55375,-0.5625 10.6125,-2.85 14.62875,-6.31125 l 8.68,11.83625 c -5.88625,4.84 -13.135,8.08503 -21.06375,9.06253 l -2.245,-14.58753"
       id="path3337-3"
       inkscape:connector-curvature="0" />
    <path
       inkscape:connector-curvature="0"
       d="m 95.39691,1002.4883 0,-17.37745 6.465,22.93875 -4.37625,-2.1213 2.045,21.02 -3.3375,-2.015 0.88125,15.495 -7.085004,-22.7887 4.878754,2.0637 -3.611254,-19.5325 4.140004,2.3175"
       style="fill:#f9f9f9;fill-opacity:1;fill-rule:evenodd;stroke:none"
       id="path3150-9" />
  </g>
</svg>
