<?xml version="1.0" encoding="UTF-8" standalone="no"?>
<!-- Created with Inkscape (http://www.inkscape.org/) -->

<svg
   xmlns:dc="http://purl.org/dc/elements/1.1/"
   xmlns:cc="http://creativecommons.org/ns#"
   xmlns:rdf="http://www.w3.org/1999/02/22-rdf-syntax-ns#"
   xmlns:svg="http://www.w3.org/2000/svg"
   xmlns="http://www.w3.org/2000/svg"
   version="1.1"
   width="200.09"
   height="236.36"
   id="svg3449">
  <defs
     id="defs3451" />
  <metadata
     id="metadata3454">
    <rdf:RDF>
      <cc:Work
         rdf:about="">
        <dc:format>image/svg+xml</dc:format>
        <dc:type
           rdf:resource="http://purl.org/dc/dcmitype/StillImage" />
        <dc:title></dc:title>
      </cc:Work>
    </rdf:RDF>
  </metadata>
  <g
     transform="translate(0,-815.98833)"
     id="layer1">
    <path
       d="m 158.95203,1010.1237 -0.95875,1.999 2.75625,-1.6253 c 3.445,-3.7225 6.62625,-8.2663 9.5975,-13.66626 9.145,1.84 18.735,4.89746 28.7175,8.88126 -15.76,20.7251 -31.09375,32.4698 -47.65625,36.0225 l 1.445,2.0074 c 1.76625,-0.4088 3.52,-0.9088 5.25875,-1.5074 1.32875,0.2003 2.6575,0.3614 3.98625,0.4985 l 0,1.0914 16.47875,2.8125 6.3375,-0.625 6.655,3.4365 -180.216254,-0.314 32.54375,-4.0586 8.2275,-0.6963 c 1.89125,0.3174 3.79875,0.5576 5.71625,0.7149 l 0.9975,-2.0771 c -24.26625,-1.419 -47.2925,-16.1763 -57.92999943,-32.2803 8.45499983,-6.4062 42.15999943,-16.76876 70.11499943,-7.21 l -2.7075,-2.2225 c -2.29125,-0.6425 -4.61,-1.1675 -6.94125,-1.58501 -0.405,-0.2625 -0.78625,-0.50625 -1.13625,-0.72875 l -5.9375,-6.865 c -1.5725,-1.8525 -7.57875,-10.7975 -9.35125,-10.62125 0.25875,1.58625 8.80125,12.35125 8.5875,13.4025 -1.77,-0.55 -13.78875,-6.05375 -19.27375,-7.0625 3.8975,2.13625 15.90625,7.72625 22.32125,11.1675 -10.315,-1.23125 -20.685,-0.5625 -29.85625,1.04371 -6.16625,-9.40371 -10.1125,-19.83621 -11.395,-29.37371 13.08875,-3.0125 67.8025,5.07625 80.17125,43.39881 l 0.71375,1.0048 3.5225,1.5664 0.623754,0.685 0.001,-0.1411 5.79625,-3.8026 c 10.2275,-37.61131 36.79125,-44.53256 72.11875,-38.71756 -5.3875,16.02875 -11.68875,27.70376 -19.32875,35.44756 m -58.586,24.02 c -3.642504,3.5385 -8.120004,5.8285 -13.430004,6.871 l 12.805,1.249 14.992504,-1.249 c -5.205,-1.0425 -9.99375,-3.3325 -14.3675,-6.871 m 66.34,-53.29256 c -10.39125,8.93 -20.86875,17.5625 -31.94625,24.12126 -0.42875,-3.9163 -0.2675,-9.54251 0.345,-13.66876 -1.38875,4.815 -2.56625,6.50625 -3.46875,15.46256 -4.76125,4.5475 -11.95875,4.7825 -17.035,7.9198 l 0.7275,1.4375 c 6.88875,-2.1273 17.1925,-5.0273 23.95,-10.1748 6.74125,-0.4113 11.36,0.4412 18.385,-0.835 -5.18,-0.1763 -10.04875,-0.8188 -13.98375,-1.8513 l 3.95,-3.41001 c 9.43375,-7.77125 7.03375,-5.145 19.07625,-19.00125 m -110.842504,43.29486 31.4675,3.7515 c -26.0775,0.6627 -54.285,-3.6851 -76.31,-13.5302 3.075,-3.5361 12.21125,3.3861 18.1425,4.3491 0.1775,-2.8716 -1.88125,-5.7642 -4.9575,-8.6665 4.12125,0.8488 7.27625,4.0649 9.60125,8.871 4.895,2.584 10.47125,2.8829 16.635,3.6851 -1.2,-3.1436 -3.22625,-5.8286 -5.48,-9.1562 5.76125,1.5326 7.26375,7.5302 10.90125,10.6962 m 61.513754,0.269 c -4.94375,-1.0838 -6.18625,-0.1137 -0.67125,1.3209 7.28,1.8916 15.4225,2.4214 24.83,1.2388 8.375,4.3965 13.6825,4.9638 21.39625,4.3202 -6.235,-2.1586 -11.0125,-1.665 -18.2375,-5.2314 7.75125,-1.3672 23.22,-6.521 31.17875,-9.3598 -0.0163,-0.1025 -0.59375,-0.7275 -1.3675,-0.9288 -1.76875,-0.4639 -2.0075,0.047 -4.165,0.7686 -14.54875,4.8677 -30.77125,12.7339 -52.96375,7.8715"
       id="path3138"
       style="fill:#a6a385;fill-opacity:1;fill-rule:evenodd;stroke:none" />
    <path
       d="m 94.742026,857.54114 c -7.7425,0.87375 -14.85,3.9075 -20.695,8.48125 l 8.76,11.94375 c 3.9925,-3.235 8.93375,-5.3375 14.33125,-5.81875 l -2.39625,-14.60625 m -27.8225,15.60375 c -4.54375,5.80375 -7.5725,12.84875 -8.475,20.53 l 14.6175,2.2475 c 0.54125,-5.3275 2.66875,-10.1975 5.8975,-14.1325 l -12.04,-8.645 m -8.35375,31.095 c 0.9575,6.81125 3.59125,13.09625 7.4675,18.42375 l 11.90625,-8.54875 c -2.555,-3.54 -4.26,-7.7275 -4.81625,-12.2625 l -14.5575,2.3875 m 14.64375,26.05125 c 3.06125,2.52625 6.49,4.62125 10.1925,6.18625 l 4.4875,-14.19125 -0.06,0.19125 c -2.16625,-1.06375 -4.165,-2.4175 -5.95125,-4.00625 l -8.66875,11.82 m 28.975004,-58.11625 c 5.55375,0.5625 10.6125,2.85 14.62875,6.31125 l 8.68,-11.83625 c -5.88625,-4.84 -13.135,-8.085 -21.06375,-9.0625 l -2.245,14.5875 m 18.56875,10.52125 c 2.82375,3.75875 4.67625,8.285 5.17875,13.2025 l 14.36125,-2.355 c -0.8675,-7.17875 -3.5925,-13.79875 -7.6775,-19.36375 l -11.8625,8.51625 m 5.19125,18.5225 c -0.43,4.37875 -1.92625,8.4475 -4.22875,11.9475 l 11.74875,8.43875 c 3.61625,-5.31125 6.02625,-11.50375 6.83,-18.18 l -14.35,-2.20625 m -8.225,16.70375 c -2.0975,1.9825 -4.515,3.6275 -7.1675,4.85 l 4.15125,13.97 c 4.26625,-1.71875 8.185,-4.135 11.61,-7.105 l -8.59375,-11.715"
       id="path3142"
       style="fill:#a6a385;fill-opacity:1;fill-rule:evenodd;stroke:none" />
    <path
       d="m 98.554526,922.78364 0,-16.35875 -4.32875,18.40375 4.32875,-2.045 m -23.6975,62.065 23.1175,-83.80125 c -1.33625,-0.71625 -2.25125,-2.12875 -2.25125,-3.745 0,-2.34 1.90875,-4.24875 4.2475,-4.24875 2.338754,0 4.247504,1.90875 4.247504,4.24875 0,1.60125 -0.89625,3 -2.21125,3.7225 l 20.2975,80.1575 -3.25,3.45875 -0.8375,-3.76375 -14.02,-2.25375 0.4475,12.86125 7.3675,1.04625 -2.67125,4.995 -4.56125,-0.58125 0.27625,11.07251 -4.51875,3.9363 -2.187504,-1.395 0.0213,-14.40756 -8.99625,1.01375 -4.385,-4.78375 13.38875,-1.70375 0.02,-12.6825 -16.935,2.02 -1.7375,7.4775 -4.86875,-2.64375 m 38.581254,-25.27375 -9.88125,-2.46375 -0.35875,-9.9475 8.2025,2.88375 2.0375,9.5275 m -9.87125,1.7975 10.8575,2.4875 2.64,11.46 -13.1075,-2.41125 -0.39,-11.53625 m 4.635,-25.89125 -5.49,-2.32625 -0.2225,-5.02375 4.56,2.2025 1.1525,5.1475 m -5.32875,1.31 6.1525,2.54625 1.3225,5.7025 -7.22875,-2.59375 -0.24625,-5.655 m -10.917504,-1.61625 6.22875,-2.10625 0.0562,-5.25125 -5.11125,2.2025 -1.17375,5.155 m 6.19125,1.44 -7.12875,2.225 -1.2675,5.96625 8.3325,-2.36125 0.0637,-5.83 m -11.5475,21.85875 11.67875,-2.0075 -0.0387,-9.3025 -9.61875,2.56875 -2.02125,8.74125 m 11.69875,2.84375 -12.88875,1.85375 -2.60875,11.51875 15.54375,-2.095 -0.0462,-11.2775 m 4.103754,-37.8275 -0.46625,-15.41125 4.17,17.535 -3.70375,-2.12375"
       id="path3144"
       style="fill:#496762;fill-opacity:1;fill-rule:evenodd;stroke:none" />
    <path
       d="m 100.10203,887.16989 c -5.600004,0 -10.168754,4.45875 -10.168754,9.9275 0,3.1775 1.54625,6.0125 3.93875,7.83375 l 1.18375,-4.01625 c -0.78125,-1.03875 -1.2475,-2.32625 -1.2475,-3.72 0,-3.415 2.78375,-6.19875 6.197504,-6.19875 3.415,0 6.1975,2.78375 6.1975,6.19875 0,1.47375 -0.51875,2.82875 -1.3825,3.89125 l 1.11125,4.13375 c 2.62,-1.79875 4.33875,-4.77 4.33875,-8.1225 0,-5.46875 -4.5675,-9.9275 -10.16875,-9.9275"
       id="path3146"
       style="fill:#a6a385;fill-opacity:1;fill-rule:evenodd;stroke:none" />
    <path
       d="m 89.089526,819.33739 c -14.11625,1.8875 -27.0925,7.4625 -37.92,15.72375 l 10.51625,14.34 c 8.61,-6.63375 18.99,-11.0725 30.29125,-12.4625 l -2.8875,-17.60125 m -53.37875,31.24875 c -8.185,10.8075 -13.705,23.735 -15.565,37.79125 l 17.625,2.7125 c 1.39625,-11.235 5.8,-21.5575 12.38,-30.13375 l -14.44,-10.37 m -15.3675,60.27125 c 1.94125,12.935 6.99375,24.875 14.35875,35.03875 l 14.57125,-10.465 c -5.8075,-7.95 -9.78625,-17.315 -11.2975,-27.46625 l -17.6325,2.8925 m 29.85625,51.16125 c 6.37375,5.02125 13.52125,9.1025 21.23125,12.02375 l 5.45375,-17.24625 -0.01,-0.009 c -5.81875,-2.2935 -11.2125,-5.4435 -16.03,-9.28475 l -10.645,14.51625 m 89.241254,-15.39625 c -5.17625,4.31875 -11.06,7.82 -17.4475,10.2925 l -0.35,0.3525 5.12625,17.25375 c 8.5775,-3.08125 16.48,-7.5875 23.4325,-13.225 l -10.76125,-14.67375 m 21.95,-39.78375 c -1.30375,10.01375 -4.99875,19.29125 -10.4925,27.24125 l 14.76125,10.6 c 7.13,-10.22625 11.9425,-22.17625 13.67125,-35.08125 l -17.94,-2.76 m -11.3375,-44.55375 c 5.98125,8.23875 9.99875,17.9875 11.35375,28.55125 l 17.8775,-2.93375 c -1.84875,-13.35625 -7.005,-25.68125 -14.61,-36.11875 l -14.62125,10.50125 m -42.2075,-25.27 c 11.5425,1.5375 22.105,6.2575 30.7725,13.245 l 10.625,-14.49 c -10.96875,-8.62125 -24.22625,-14.455 -38.6825,-16.41625 l -2.715,17.66125"
       id="path3148"
       style="fill:#a6a385;fill-opacity:1;fill-rule:evenodd;stroke:none" />
    <path
       d="m 99.100776,854.88364 0,17.3775 6.465004,-22.93875 -4.37625,2.12125 2.045,-21.02 -3.337504,2.015 0.881254,-15.495 -7.085004,22.78875 4.87875,-2.06375 -3.61125,19.5325 4.14,-2.3175"
       id="path3150"
       style="fill:#496762;fill-opacity:1;fill-rule:evenodd;stroke:none" />
    <path
       d="m 34.992026,899.10614 -17.37625,-10e-4 22.9375,6.465 -2.12,-4.37625 21.02,2.045 -2.015,-3.3375 15.495,0.88125 -22.79,-7.08625 2.065,4.87875 -19.53375,-3.61 2.3175,4.14125"
       id="path3152"
       style="fill:#496762;fill-opacity:1;fill-rule:evenodd;stroke:none" />
    <path
       d="m 165.64828,898.47989 17.37625,0 -22.9375,6.46375 2.12,-4.37625 -21.02,2.045 2.01625,-3.33625 -15.49625,0.88 22.79,-7.085 -2.065,4.8775 19.53375,-3.61 -2.3175,4.14125"
       id="path3154"
       style="fill:#496762;fill-opacity:1;fill-rule:evenodd;stroke:none" />
    <path
       d="m 52.457026,853.51239 -12.2875,-12.28625 20.79125,11.64875 -4.59375,1.59375 16.30875,13.41875 -3.785,0.935 11.58,10.3325 -21.12375,-11.10375 4.90875,-1.98875 -16.365,-11.26 4.56625,-1.29"
       id="path3156"
       style="fill:#496762;fill-opacity:1;fill-rule:evenodd;stroke:none" />
    <path
       d="m 53.069526,944.51114 -12.28625,12.28875 11.64875,-20.79125 1.59375,4.59375 13.4175,-16.30875 0.935,3.78375 10.33375,-11.58 -11.1025,21.125 -1.99125,-4.90875 -11.25875,16.365 -1.29,-4.5675"
       id="path3158"
       style="fill:#496762;fill-opacity:1;fill-rule:evenodd;stroke:none" />
    <path
       d="m 148.30703,853.49114 12.28625,-12.28625 -20.78875,11.6475 4.5925,1.59625 -16.30875,13.41625 3.78375,0.935 -11.57875,10.335 21.125,-11.10375 -4.91,-1.99125 16.365,-11.25875 -4.56625,-1.29"
       id="path3160"
       style="fill:#496762;fill-opacity:1;fill-rule:evenodd;stroke:none" />
    <path
       d="m 149.44703,943.13114 12.28625,12.28625 -20.78875,-11.6475 4.5925,-1.59625 -16.30875,-13.41625 3.78375,-0.935 -11.57875,-10.335 21.125,11.105 -4.91,1.99 16.365,11.25875 -4.56625,1.29"
       id="path3162"
       style="fill:#496762;fill-opacity:1;fill-rule:evenodd;stroke:none" />
  </g>
</svg>
